<?xml version="1.0" encoding="UTF-8" standalone="no"?>
<!-- Created with Inkscape (http://www.inkscape.org/) -->

<svg
   version="1.1"
   id="svg1"
   width="256"
   height="256"
   viewBox="80 80 840 820.00001"
   sodipodi:docname="icon.svg"
   inkscape:version="1.4.2 (f4327f4, 2025-05-13)"
   inkscape:export-filename="icon.png"
   inkscape:export-xdpi="96"
   inkscape:export-ydpi="96"
   xmlns:inkscape="http://www.inkscape.org/namespaces/inkscape"
   xmlns:sodipodi="http://sodipodi.sourceforge.net/DTD/sodipodi-0.dtd"
   xmlns="http://www.w3.org/2000/svg"
   xmlns:svg="http://www.w3.org/2000/svg">
  <sodipodi:namedview
     id="namedview1"
     pagecolor="#ffffff"
     bordercolor="#000000"
     borderopacity="0.25"
     inkscape:showpageshadow="false"
     inkscape:pageopacity="0.0"
     inkscape:pagecheckerboard="0"
     inkscape:deskcolor="#d1d1d1"
     inkscape:zoom="0.91923882"
     inkscape:cx="418.28086"
     inkscape:cy="113.68101"
     inkscape:window-width="1920"
     inkscape:window-height="1017"
     inkscape:window-x="-8"
     inkscape:window-y="-8"
     inkscape:window-maximized="1"
     inkscape:current-layer="g1"
     showborder="false"
     borderlayer="false"
     showguides="true" />
  <defs
     id="defs1">
    <inkscape:path-effect
       effect="fill_between_many"
       method="originald"
       linkedpaths="#path1,0,1"
       id="path-effect1"
       is_visible="true"
       lpeversion="0"
       join="true"
       close="true"
       autoreverse="true" />
  </defs>
  <g
     inkscape:groupmode="layer"
     inkscape:label="Image"
     id="g1">
    <path
       style="display:inline;fill:#55789b;fill-opacity:1;stroke-width:1.29967"
       d="m 731.43481,884.35248 c -1.47847,-0.30652 -3.97814,-2.00741 -5.55478,-3.78006 -2.41187,-2.71168 -2.98959,-5.23364 -3.64189,-15.89807 -0.42638,-6.97134 -1.34115,-13.24948 -2.03274,-13.95152 -1.57319,-1.59677 -24.28973,-10.86356 -26.63091,-10.86356 -0.94852,0 -6.15362,4.20747 -11.56685,9.34995 -13.78859,13.09897 -14.0173,13.06186 -30.87659,-5.00889 -14.3452,-15.376 -17.54314,-19.62189 -17.54314,-23.29189 0,-1.28033 4.24806,-7.47407 9.44013,-13.76385 8.07937,-9.78752 9.27749,-11.864 8.31169,-14.40523 -0.62066,-1.63306 -3.33275,-8.37885 -6.02682,-14.99062 l -4.89835,-12.02137 -12.13381,-0.75705 c -19.5509,-1.21982 -21.23026,-3.73717 -21.24222,-31.84177 -0.007,-15.71092 0.1603,-16.80197 3.21878,-21.03743 3.20594,-4.43958 3.29128,-4.46715 13.8282,-4.46715 12.18943,0 16.63385,-1.37165 18.30657,-5.64993 0.65202,-1.66771 2.92131,-7.34042 5.04281,-12.60602 2.12154,-5.26564 3.85733,-10.85687 3.85733,-12.42501 0,-1.69873 -3.57804,-6.84399 -8.85218,-12.72962 -6.01418,-6.71144 -8.85213,-10.92925 -8.85213,-13.15625 0,-3.6838 20.17277,-27.06961 28.79387,-33.38004 6.34681,-4.6457 8.11587,-3.95663 20.34786,7.92576 l 9.30709,9.04103 13.45557,-4.98476 c 7.40058,-2.74163 13.85531,-5.40651 14.34389,-5.92198 0.48855,-0.51549 1.2823,-7.37428 1.76385,-15.24177 1.24794,-20.38818 0.81587,-20.06715 26.2641,-19.5118 25.29349,0.55198 25.14353,0.43752 25.878,19.7515 0.29724,7.82049 1.11154,13.8618 1.96942,14.61386 1.4189,1.24381 25.81724,10.80979 27.57274,10.8106 0.48033,2e-4 5.1037,-4.14265 10.27414,-9.20637 5.17044,-5.06367 10.58889,-9.60502 12.04097,-10.0918 3.97452,-1.33243 7.12208,1.03921 22.65305,17.06858 12.23518,12.62782 14.22666,15.2784 14.22666,18.93524 0,2.63362 -1.01662,5.22055 -2.67091,6.79658 -1.46898,1.39947 -5.51252,6.00522 -8.9856,10.23499 l -6.31472,7.6905 5.19185,12.50396 c 2.85549,6.87719 5.19181,13.1627 5.19181,13.96782 0,2.66295 4.28863,3.87631 16.10128,4.55553 16.80678,0.96638 17.57079,1.69329 18.71449,17.80562 0.50346,7.09287 0.54288,17.48538 0.0877,23.09452 -0.69931,8.61586 -1.32397,10.66475 -4.02556,13.20373 -2.80366,2.63494 -4.57465,3.00536 -14.36853,3.00536 -8.83751,0 -11.69607,0.48822 -13.68601,2.33747 -1.38338,1.28565 -4.71856,8.3482 -7.41148,15.6946 -2.69292,7.34642 -5.07091,13.76034 -5.28441,14.25321 -0.21341,0.49284 3.25951,5.00089 7.71781,10.01783 14.70327,16.54569 14.67025,17.39349 -1.32281,33.98224 -14.60856,15.15268 -18.70144,18.55004 -22.34766,18.55004 -1.59685,0 -7.13019,-4.14478 -13.38982,-10.02979 -5.86754,-5.51638 -10.9681,-9.87413 -11.33459,-9.6839 -0.36645,0.19027 -6.35695,2.69219 -13.31223,5.5599 -6.95525,2.86769 -13.30475,5.75034 -14.10996,6.40587 -0.87602,0.71319 -1.63788,6.48995 -1.89689,14.38313 -0.38665,11.78364 -0.75998,13.55871 -3.49858,16.63512 -3.02092,3.39347 -3.31711,3.44122 -20.23351,3.26197 -9.44224,-0.10004 -18.37738,-0.43259 -19.85589,-0.73901 z m 36.18068,-65.27413 c 14.79126,-3.68215 26.07414,-10.46643 37.60288,-22.61013 8.38633,-8.8337 11.36803,-13.11965 15.43092,-22.18085 11.61807,-25.91087 11.59404,-49.62895 -0.0755,-74.63245 -9.47978,-20.31136 -28.27637,-36.78541 -49.7775,-43.6269 -9.05274,-2.88052 -33.4492,-3.23669 -42.36382,-0.61846 -41.5775,12.21133 -67.3074,57.52246 -57.53191,101.31547 6.59413,29.54098 30.93137,54.98584 59.6039,62.31659 9.90302,2.53192 27.01995,2.54885 37.11117,0.0368 z"
       id="path30"
       inkscape:label="Gear" />
    <path
       style="display:inline;fill:#000000;fill-opacity:1;stroke-width:1.29967"
       d="m 261.63228,841.52923 -65.29201,-0.35812 -5.32556,-6.10245 -5.32555,-6.10249 0.43269,-194.86219 0.4327,-194.86216 9.36022,-9.06382 c 5.14812,-4.9851 9.84291,-9.26415 10.43288,-9.50903 0.58997,-0.24502 1.07383,73.38613 1.07526,163.62444 0.002,90.23836 0.37729,179.84781 0.83525,199.13212 l 0.83266,35.06238 h 193.07667 193.07667 l 1.579,3.6732 c 0.86845,2.02026 3.80511,7.12254 6.52593,11.33842 2.72085,4.21589 4.94698,7.97256 4.94698,8.3482 0,0.64647 -205.09512,0.45806 -346.66379,-0.31836 z"
       id="path31"
       inkscape:label="Window border left" />
    <path
       style="display:inline;fill:#000000;fill-opacity:1;stroke-width:1.29967"
       d="m 835.66359,579.57702 -9.74352,-6.19188 -0.0569,-184.65793 -0.0569,-184.65792 -206.81366,-0.33792 -206.81367,-0.33792 9.85342,-11.74466 9.85343,-11.74467 201.07013,0.39113 c 199.62133,0.38831 201.10176,0.41073 205.45154,3.10982 9.08705,5.63869 8.55569,-1.16928 9.06629,116.1595 0.61605,141.56607 0.0503,286.54514 -1.11785,286.35707 -0.52167,-0.0842 -5.33305,-2.93909 -10.69198,-6.34462 z"
       id="path38"
       inkscape:label="Window border right" />
    <rect
       style="fill:#000000;stroke:none;stroke-width:7.31792"
       id="rect4"
       width="23.482243"
       height="102.5564"
       x="737.12909"
       y="657.52002"
       inkscape:label="Minuten" />
    <rect
       style="fill:#000000;stroke:none;stroke-width:6.06199"
       id="rect4-2"
       width="23.482243"
       height="70.374908"
       x="-232.55109"
       y="976.67041"
       inkscape:label="Stunden"
       inkscape:transform-center-y="-12.711089"
       transform="rotate(-57.013993)"
       inkscape:transform-center-x="19.583837" />
    <text
       xml:space="preserve"
       style="font-style:normal;font-variant:normal;font-weight:normal;font-stretch:normal;font-size:43.7491px;font-family:'Courier New';-inkscape-font-specification:'Courier New, Normal';font-variant-ligatures:normal;font-variant-caps:normal;font-variant-numeric:normal;font-variant-east-asian:normal;text-align:start;writing-mode:lr-tb;direction:ltr;text-anchor:start;display:none;fill:#000000;stroke:none;stroke-width:6.5625"
       x="261.73077"
       y="280.7572"
       id="text21"
       inkscape:label="Text active"><tspan
         sodipodi:role="line"
         id="tspan14"
         style="font-style:normal;font-variant:normal;font-weight:bold;font-stretch:normal;font-size:52.5px;font-family:'Courier New';-inkscape-font-specification:'Courier New, Bold';font-variant-ligatures:normal;font-variant-caps:normal;font-variant-numeric:normal;font-variant-east-asian:normal;stroke-width:6.5625"
         x="261.73077"
         y="280.7572">I T   I S</tspan><tspan
         sodipodi:role="line"
         style="font-style:normal;font-variant:normal;font-weight:bold;font-stretch:normal;font-size:52.5px;font-family:'Courier New';-inkscape-font-specification:'Courier New, Bold';font-variant-ligatures:normal;font-variant-caps:normal;font-variant-numeric:normal;font-variant-east-asian:normal;stroke-width:6.5625"
         x="261.73077"
         y="346.3822"
         id="tspan15">A   Q U A R T E R</tspan><tspan
         sodipodi:role="line"
         style="font-style:normal;font-variant:normal;font-weight:bold;font-stretch:normal;font-size:52.5px;font-family:'Courier New';-inkscape-font-specification:'Courier New, Bold';font-variant-ligatures:normal;font-variant-caps:normal;font-variant-numeric:normal;font-variant-east-asian:normal;stroke-width:6.5625"
         x="261.73077"
         y="412.0072"
         id="tspan16" /><tspan
         sodipodi:role="line"
         style="font-style:normal;font-variant:normal;font-weight:bold;font-stretch:normal;font-size:52.5px;font-family:'Courier New';-inkscape-font-specification:'Courier New, Bold';font-variant-ligatures:normal;font-variant-caps:normal;font-variant-numeric:normal;font-variant-east-asian:normal;stroke-width:6.5625"
         x="261.73077"
         y="477.6322"
         id="tspan17" /><tspan
         sodipodi:role="line"
         style="font-style:normal;font-variant:normal;font-weight:bold;font-stretch:normal;font-size:52.5px;font-family:'Courier New';-inkscape-font-specification:'Courier New, Bold';font-variant-ligatures:normal;font-variant-caps:normal;font-variant-numeric:normal;font-variant-east-asian:normal;stroke-width:6.5625"
         x="261.73077"
         y="543.2572"
         id="tspan18">P A S T</tspan><tspan
         sodipodi:role="line"
         style="font-style:normal;font-variant:normal;font-weight:bold;font-stretch:normal;font-size:52.5px;font-family:'Courier New';-inkscape-font-specification:'Courier New, Bold';font-variant-ligatures:normal;font-variant-caps:normal;font-variant-numeric:normal;font-variant-east-asian:normal;stroke-width:6.5625"
         x="261.73077"
         y="608.8822"
         id="tspan19">O N E</tspan><tspan
         sodipodi:role="line"
         style="font-style:normal;font-variant:normal;font-weight:bold;font-stretch:normal;font-size:52.5px;font-family:'Courier New';-inkscape-font-specification:'Courier New, Bold';font-variant-ligatures:normal;font-variant-caps:normal;font-variant-numeric:normal;font-variant-east-asian:normal;stroke-width:6.5625"
         x="261.73077"
         y="674.5072"
         id="tspan20"> </tspan><tspan
         sodipodi:role="line"
         style="font-style:normal;font-variant:normal;font-weight:bold;font-stretch:normal;font-size:52.5px;font-family:'Courier New';-inkscape-font-specification:'Courier New, Bold';font-variant-ligatures:normal;font-variant-caps:normal;font-variant-numeric:normal;font-variant-east-asian:normal;stroke-width:6.5625"
         x="261.73077"
         y="733.02277"
         id="tspan21" /></text>
    <text
       xml:space="preserve"
       style="font-style:normal;font-variant:normal;font-weight:normal;font-stretch:normal;font-size:43.7491px;font-family:'Courier New';-inkscape-font-specification:'Courier New, Normal';font-variant-ligatures:normal;font-variant-caps:normal;font-variant-numeric:normal;font-variant-east-asian:normal;text-align:start;writing-mode:lr-tb;direction:ltr;text-anchor:start;display:none;fill:#ff9955;stroke:none;stroke-width:6.5625"
       x="261.73077"
       y="280.7572"
       id="text29"
       inkscape:label="Text inactive"><tspan
         sodipodi:role="line"
         id="tspan22"
         style="font-style:normal;font-variant:normal;font-weight:bold;font-stretch:normal;font-size:52.5px;font-family:'Courier New';-inkscape-font-specification:'Courier New, Bold';font-variant-ligatures:normal;font-variant-caps:normal;font-variant-numeric:normal;font-variant-east-asian:normal;fill:#ff9955;stroke-width:6.5625"
         x="261.73077"
         y="280.7572">    L     B F A M</tspan><tspan
         sodipodi:role="line"
         style="font-style:normal;font-variant:normal;font-weight:bold;font-stretch:normal;font-size:52.5px;font-family:'Courier New';-inkscape-font-specification:'Courier New, Bold';font-variant-ligatures:normal;font-variant-caps:normal;font-variant-numeric:normal;font-variant-east-asian:normal;fill:#ff9955;stroke-width:6.5625"
         x="261.73077"
         y="346.3822"
         id="tspan23">  C</tspan><tspan
         sodipodi:role="line"
         style="font-style:normal;font-variant:normal;font-weight:bold;font-stretch:normal;font-size:52.5px;font-family:'Courier New';-inkscape-font-specification:'Courier New, Bold';font-variant-ligatures:normal;font-variant-caps:normal;font-variant-numeric:normal;font-variant-east-asian:normal;fill:#ff9955;stroke-width:6.5625"
         x="261.73077"
         y="412.0072"
         id="tspan24">T W E N T Y F I V</tspan><tspan
         sodipodi:role="line"
         style="font-style:normal;font-variant:normal;font-weight:bold;font-stretch:normal;font-size:52.5px;font-family:'Courier New';-inkscape-font-specification:'Courier New, Bold';font-variant-ligatures:normal;font-variant-caps:normal;font-variant-numeric:normal;font-variant-east-asian:normal;fill:#ff9955;stroke-width:6.5625"
         x="261.73077"
         y="477.6322"
         id="tspan25">H A L F B T E N F</tspan><tspan
         sodipodi:role="line"
         style="font-style:normal;font-variant:normal;font-weight:bold;font-stretch:normal;font-size:52.5px;font-family:'Courier New';-inkscape-font-specification:'Courier New, Bold';font-variant-ligatures:normal;font-variant-caps:normal;font-variant-numeric:normal;font-variant-east-asian:normal;fill:#ff9955;stroke-width:6.5625"
         x="261.73077"
         y="543.2572"
         id="tspan26">        E R U N I</tspan><tspan
         sodipodi:role="line"
         style="font-style:normal;font-variant:normal;font-weight:bold;font-stretch:normal;font-size:52.5px;font-family:'Courier New';-inkscape-font-specification:'Courier New, Bold';font-variant-ligatures:normal;font-variant-caps:normal;font-variant-numeric:normal;font-variant-east-asian:normal;fill:#ff9955;stroke-width:6.5625"
         x="261.73077"
         y="608.8822"
         id="tspan27">      S I X</tspan><tspan
         sodipodi:role="line"
         style="font-style:normal;font-variant:normal;font-weight:bold;font-stretch:normal;font-size:52.5px;font-family:'Courier New';-inkscape-font-specification:'Courier New, Bold';font-variant-ligatures:normal;font-variant-caps:normal;font-variant-numeric:normal;font-variant-east-asian:normal;fill:#ff9955;stroke-width:6.5625"
         x="261.73077"
         y="674.5072"
         id="tspan28">F O U R F</tspan><tspan
         sodipodi:role="line"
         style="font-style:normal;font-variant:normal;font-weight:bold;font-stretch:normal;font-size:52.5px;font-family:'Courier New';-inkscape-font-specification:'Courier New, Bold';font-variant-ligatures:normal;font-variant-caps:normal;font-variant-numeric:normal;font-variant-east-asian:normal;display:none;fill:#ff9955;stroke-width:6.5625"
         x="261.73077"
         y="674.5072"
         id="tspan29" /></text>
    <g
       id="text8"
       style="font-size:43.7491px;font-family:'Courier New';-inkscape-font-specification:'Courier New, Normal';stroke-width:6.5625"
       inkscape:label="Text active"
       aria-label="I T   I S&#10;A   Q U A R T E R&#10;&#10;&#10;P A S T&#10;O N E&#10; &#10;">
      <path
         style="font-weight:bold;font-size:52.5px;-inkscape-font-specification:'Courier New, Bold'"
         d="m 280.1109,254.94299 v 20.55909 h 5.3064 q 1.89697,0 2.69165,0.7434 0.82031,0.71778 0.82031,1.89698 0,1.15356 -0.82031,1.89697 -0.79468,0.71777 -2.69165,0.71777 h -15.86792 q -1.89698,0 -2.71729,-0.71777 -0.79468,-0.74341 -0.79468,-1.92261 0,-1.15356 0.79468,-1.87134 0.82031,-0.7434 2.71729,-0.7434 h 5.30639 v -20.55909 h -5.30639 q -1.89698,0 -2.71729,-0.71777 -0.79468,-0.74341 -0.79468,-1.92261 0,-1.1792 0.79468,-1.89697 0.82031,-0.74341 2.71729,-0.74341 l 15.86792,0.0256 q 1.89697,0 2.69165,0.71777 0.82031,0.71777 0.82031,1.89697 0,1.1792 -0.82031,1.92261 -0.79468,0.71777 -2.69165,0.71777 z m 62.93335,0 v 20.55909 h 3.5376 q 1.89697,0 2.69165,0.7434 0.82031,0.71778 0.82031,1.89698 0,1.15356 -0.82031,1.89697 -0.79468,0.71777 -2.69165,0.71777 h -12.30469 q -1.89697,0 -2.71728,-0.71777 -0.79468,-0.74341 -0.79468,-1.92261 0,-1.15356 0.79468,-1.87134 0.82031,-0.7434 2.71728,-0.7434 h 3.51196 v -20.55909 h -5.69091 v 4.97315 q 0,1.89697 -0.74341,2.71728 -0.71778,0.79468 -1.89698,0.79468 -1.15356,0 -1.89697,-0.79468 -0.71777,-0.82031 -0.71777,-2.71728 v -10.25391 l 27.22412,0.0256 v 10.22827 q 0,1.89697 -0.74341,2.71728 -0.71777,0.79468 -1.89697,0.79468 -1.15357,0 -1.89697,-0.79468 -0.71778,-0.82031 -0.71778,-2.71728 v -4.97315 z m 126.09741,0 v 20.55909 h 5.3064 q 1.89697,0 2.69165,0.7434 0.82031,0.71778 0.82031,1.89698 0,1.15356 -0.82031,1.89697 -0.79468,0.71777 -2.69165,0.71777 h -15.86792 q -1.89697,0 -2.71729,-0.71777 -0.79467,-0.74341 -0.79467,-1.92261 0,-1.15356 0.79467,-1.87134 0.82032,-0.7434 2.71729,-0.7434 h 5.3064 v -20.55909 h -5.3064 q -1.89697,0 -2.71729,-0.71777 -0.79467,-0.74341 -0.79467,-1.92261 0,-1.1792 0.79467,-1.89697 0.82032,-0.74341 2.71729,-0.74341 l 15.86792,0.0256 q 1.89697,0 2.69165,0.71777 0.82031,0.71777 0.82031,1.89697 0,1.1792 -0.82031,1.92261 -0.79468,0.71777 -2.69165,0.71777 z m 52.70508,24.4812 q -0.69214,0.82032 -1.12793,1.05103 -0.41016,0.23071 -1.02539,0.23071 -1.20483,0 -1.94824,-0.79468 -0.71778,-0.82031 -0.71778,-2.69165 v -3.53759 q 0,-1.89698 0.71778,-2.69165 0.74341,-0.82032 1.94824,-0.82032 0.92285,0 1.53809,0.48706 0.64087,0.48707 0.97412,1.64063 0.33325,1.12793 0.69214,1.53809 0.7434,0.79467 2.64038,1.61499 1.89697,0.82031 4.15283,0.82031 3.51196,0 5.76782,-1.64063 1.43555,-0.99975 1.43555,-2.46093 0,-0.97413 -0.69214,-1.82007 -0.69214,-0.87158 -2.25586,-1.43555 -1.02539,-0.38452 -4.58862,-1.05102 -4.30664,-0.79468 -6.51123,-1.92261 -2.20459,-1.12793 -3.48633,-3.17871 -1.28174,-2.05078 -1.28174,-4.43482 0,-3.76831 3.15308,-6.58813 3.15307,-2.84546 8.20312,-2.84546 2.02515,0 3.74268,0.46142 1.74316,0.4358 3.15307,1.35865 1.02539,-0.99976 2.05078,-0.99976 1.15357,0 1.87134,0.82031 0.74341,0.79468 0.74341,2.66602 v 3.94775 q 0,1.89698 -0.74341,2.71729 -0.71777,0.79468 -1.87134,0.79468 -0.97412,0 -1.69189,-0.5896 -0.56396,-0.43579 -0.84595,-1.74317 -0.28198,-1.30737 -0.71777,-1.87134 -0.74341,-0.97412 -2.23023,-1.64062 -1.48681,-0.6665 -3.43505,-0.6665 -2.84546,0 -4.51172,1.333 -1.64063,1.30738 -1.64063,2.74292 0,0.97412 0.66651,1.89698 0.69213,0.89721 1.99951,1.40991 0.87158,0.35888 4.89624,1.15356 4.05029,0.79468 6.20361,1.74317 2.17896,0.94848 3.6145,2.97363 1.43555,2.02515 1.43555,4.81934 0,3.89648 -2.74292,6.22924 -3.64014,3.07618 -9.27978,3.07618 -2.17896,0 -4.25538,-0.53833 -2.05078,-0.5127 -3.99902,-1.56373 z"
         id="path40" />
      <path
         style="font-weight:bold;font-size:52.5px;-inkscape-font-specification:'Courier New, Bold'"
         d="m 283.90485,337.92273 h -12.76612 l -1.28174,3.20435 h 1.28174 q 1.89698,0 2.69165,0.7434 0.82032,0.71778 0.82032,1.89698 0,1.15356 -0.82032,1.89697 -0.79467,0.71777 -2.69165,0.71777 h -7.07519 q -1.89698,0 -2.69165,-0.71777 -0.82032,-0.74341 -0.82032,-1.92261 0,-1.1792 0.84595,-1.92261 0.84595,-0.7434 2.79419,-0.69213 l 8.2544,-20.55909 h -3.43506 q -1.89698,0 -2.71729,-0.71777 -0.79468,-0.74341 -0.79468,-1.92261 0,-1.1792 0.79468,-1.89697 0.82031,-0.74341 2.71729,-0.74341 l 11.3562,0.0256 10.45898,25.81421 q 1.84571,0 2.43531,0.41015 1.17919,0.84595 1.17919,2.23023 0,1.15356 -0.79467,1.89697 -0.79468,0.71777 -2.69165,0.71777 h -7.0752 q -1.89697,0 -2.71728,-0.71777 -0.79468,-0.74341 -0.79468,-1.92261 0,-1.15356 0.79468,-1.87134 0.82031,-0.7434 2.71728,-0.7434 h 1.28174 z m -2.17896,-5.25513 -4.22974,-10.40771 -4.25537,10.40771 z m 122.99561,14.43238 -0.15381,0.23071 q 2.71728,0 5.10132,1.10229 0.97412,0.46143 1.61499,0.46143 0.92285,0 2.25586,-0.87158 1.333,-0.87158 2.10205,-0.87158 1.10229,0 1.8457,0.7434 0.76904,0.76905 0.76904,1.89698 0,1.35864 -1.40991,2.35839 -2.79419,1.99952 -5.61401,1.99952 -1.43555,0 -2.89673,-0.56397 -2.3584,-0.92285 -3.74268,-0.92285 -2.23022,0 -6.79321,1.15356 -0.94849,0.23072 -1.48682,0.23072 -0.99975,0 -1.7688,-0.79468 -0.7434,-0.76904 -0.7434,-1.94824 0,-1.02539 1.02539,-2.02515 l 3.35815,-3.25561 q -4.15283,-1.79444 -6.79321,-5.84473 -2.61475,-4.05029 -2.61475,-9.33106 0,-7.63916 5.25513,-12.45849 4.2041,-3.87085 9.45923,-3.87085 5.28076,0 9.48486,3.87085 5.25513,4.81933 5.25513,12.45849 0,6.5625 -3.97339,11.15113 -3.97339,4.56299 -9.53613,5.10132 z m 8.25439,-16.25245 q 0,-4.7937 -2.89673,-7.92114 -2.89673,-3.15307 -6.58813,-3.15307 -3.66577,0 -6.5625,3.15307 -2.89673,3.15308 -2.89673,7.92114 0,4.76807 2.89673,7.92115 2.89673,3.12744 6.5625,3.12744 3.6914,0 6.58813,-3.12744 2.89673,-3.12744 2.89673,-7.92115 z m 65.5481,-10.27954 v 14.8938 q 0,4.87061 -3.51197,8.28003 -3.48632,3.40943 -8.4082,3.40943 -2.4353,0 -4.58862,-0.84595 -2.12769,-0.87158 -3.84522,-2.53784 -1.69189,-1.66626 -2.64038,-3.4607 -0.94848,-1.82007 -0.94848,-4.84497 v -14.8938 q -1.66626,0 -2.46094,-0.74341 -0.79468,-0.7434 -0.79468,-1.89697 0,-1.1792 0.79468,-1.89697 0.79468,-0.71777 2.71728,-0.71777 l 6.89576,-0.0256 q 1.89697,0 2.69165,0.74341 0.82031,0.71777 0.82031,1.89697 0,1.1792 -0.82031,1.92261 -0.79468,0.71777 -2.69165,0.71777 h -1.89698 v 15.35523 q 0,2.3584 1.94824,4.17846 1.97388,1.79444 4.74244,1.79444 1.8457,0 3.46069,-0.87158 1.61499,-0.87159 2.64038,-2.53785 0.64087,-1.05102 0.64087,-2.56347 v -15.35523 h -1.89697 q -1.89698,0 -2.71729,-0.71777 -0.79468,-0.74341 -0.79468,-1.92261 0,-1.1792 0.79468,-1.89697 0.82031,-0.74341 2.71729,-0.74341 l 6.89575,0.0256 q 1.89697,0 2.69165,0.71777 0.82031,0.71777 0.82031,1.89697 0,1.15357 -0.79468,1.89697 -0.79467,0.74341 -2.46093,0.74341 z m 57.42187,17.35474 h -12.76611 l -1.28174,3.20435 h 1.28174 q 1.89697,0 2.69165,0.7434 0.82031,0.71778 0.82031,1.89698 0,1.15356 -0.82031,1.89697 -0.79468,0.71777 -2.69165,0.71777 h -7.0752 q -1.89697,0 -2.69165,-0.71777 -0.82031,-0.74341 -0.82031,-1.92261 0,-1.1792 0.84595,-1.92261 0.84594,-0.7434 2.79419,-0.69213 l 8.25439,-20.55909 h -3.43506 q -1.89697,0 -2.71728,-0.71777 -0.79468,-0.74341 -0.79468,-1.92261 0,-1.1792 0.79468,-1.89697 0.82031,-0.74341 2.71728,-0.74341 l 11.3562,0.0256 10.45899,25.81421 q 1.8457,0 2.4353,0.41015 1.1792,0.84595 1.1792,2.23023 0,1.15356 -0.79468,1.89697 -0.79467,0.71777 -2.69165,0.71777 h -7.07519 q -1.89698,0 -2.71729,-0.71777 -0.79468,-0.74341 -0.79468,-1.92261 0,-1.15356 0.79468,-1.87134 0.82031,-0.7434 2.71729,-0.7434 h 1.28174 z m -2.17895,-5.25513 -4.22974,-10.40771 -4.25537,10.40771 z m 53.34594,1.84571 v 6.61377 h 1.89698 q 1.89697,0 2.69165,0.7434 0.82031,0.71778 0.82031,1.89698 0,1.15356 -0.82031,1.89697 -0.79468,0.71777 -2.69165,0.71777 h -7.97242 q -1.89697,0 -2.71728,-0.71777 -0.79468,-0.74341 -0.79468,-1.92261 0,-1.15356 0.82031,-1.87134 0.82032,-0.7434 2.69165,-0.7434 h 0.82032 v -20.55909 h -0.82032 q -1.89697,0 -2.71728,-0.71777 -0.79468,-0.74341 -0.79468,-1.92261 0,-1.1792 0.79468,-1.89697 0.82031,-0.74341 2.71728,-0.74341 l 11.89454,0.0256 q 5.56274,0 8.61328,2.76855 3.07617,2.74292 3.07617,6.69067 0,2.46094 -1.43555,4.48609 -1.43554,1.99951 -4.33227,3.56323 1.66626,1.46118 3.56323,3.74268 1.1792,1.46118 3.17871,4.56299 1.99951,0 2.64038,0.41015 1.15357,0.79468 1.15357,2.23023 0,1.15356 -0.79468,1.89697 -0.79468,0.71777 -2.69165,0.71777 h -2.99927 q -6.38306,-9.86938 -10.58716,-11.86889 z m 0,-5.25513 h 4.10157 q 2.28149,0 4.07592,-0.69214 2.40967,-0.92285 3.22998,-1.94824 0.84595,-1.02539 0.84595,-2.02515 0,-1.48682 -1.58935,-2.74292 -1.58936,-1.28174 -4.6399,-1.28174 h -6.02417 z m 70.98267,-8.69019 v 20.55909 h 3.5376 q 1.89697,0 2.69165,0.7434 0.82031,0.71778 0.82031,1.89698 0,1.15356 -0.82031,1.89697 -0.79468,0.71777 -2.69165,0.71777 h -12.30469 q -1.89697,0 -2.71728,-0.71777 -0.79468,-0.74341 -0.79468,-1.92261 0,-1.15356 0.79468,-1.87134 0.82031,-0.7434 2.71728,-0.7434 h 3.51196 v -20.55909 h -5.69091 v 4.97315 q 0,1.89697 -0.74341,2.71728 -0.71778,0.79468 -1.89698,0.79468 -1.15356,0 -1.89697,-0.79468 -0.71777,-0.82031 -0.71777,-2.71728 v -10.25391 l 27.22412,0.0256 v 10.22827 q 0,1.89697 -0.74341,2.71728 -0.71777,0.79468 -1.89697,0.79468 -1.15357,0 -1.89697,-0.79468 -0.71778,-0.82031 -0.71778,-2.71728 v -4.97315 z m 55.06348,12.84302 v 7.71607 h 13.40698 v -2.84546 q 0,-1.89698 0.71777,-2.69165 0.74341,-0.82032 1.92261,-0.82032 1.15356,0 1.87134,0.82032 0.74341,0.79467 0.74341,2.69165 v 8.10058 h -24.73755 q -1.89698,0 -2.71729,-0.71777 -0.79468,-0.74341 -0.79468,-1.92261 0,-1.15356 0.82032,-1.87134 0.82031,-0.7434 2.69165,-0.7434 h 0.82031 v -20.55909 h -0.82031 q -1.89698,0 -2.71729,-0.71777 -0.79468,-0.74341 -0.79468,-1.92261 0,-1.1792 0.79468,-1.89697 0.82031,-0.74341 2.71729,-0.74341 l 23.58398,0.0256 v 7.99804 q 0,1.87134 -0.71777,2.69165 -0.71778,0.79468 -1.89697,0.79468 -1.1792,0 -1.92261,-0.79468 -0.71778,-0.79467 -0.71778,-2.69165 v -2.74292 H 713.159 v 7.58789 h 4.61425 q 0,-2.05078 0.38453,-2.64038 0.79467,-1.2561 2.25586,-1.2561 1.15356,0 1.87133,0.82031 0.74341,0.79468 0.74341,2.69165 v 6.04981 q 0,1.71753 -0.41015,2.30713 -0.82032,1.20483 -2.20459,1.20483 -1.46119,0 -2.25586,-1.2561 -0.38453,-0.5896 -0.38453,-2.66602 z m 62.98462,1.1023 v 6.61377 h 1.89697 q 1.89697,0 2.69165,0.7434 0.82031,0.71778 0.82031,1.89698 0,1.15356 -0.82031,1.89697 -0.79468,0.71777 -2.69165,0.71777 h -7.97241 q -1.89698,0 -2.71729,-0.71777 -0.79468,-0.74341 -0.79468,-1.92261 0,-1.15356 0.82032,-1.87134 0.82031,-0.7434 2.69165,-0.7434 h 0.82031 v -20.55909 h -0.82031 q -1.89698,0 -2.71729,-0.71777 -0.79468,-0.74341 -0.79468,-1.92261 0,-1.1792 0.79468,-1.89697 0.82031,-0.74341 2.71729,-0.74341 l 11.89453,0.0256 q 5.56274,0 8.61328,2.76855 3.07617,2.74292 3.07617,6.69067 0,2.46094 -1.43555,4.48609 -1.43554,1.99951 -4.33227,3.56323 1.66626,1.46118 3.56323,3.74268 1.1792,1.46118 3.17871,4.56299 1.99951,0 2.64038,0.41015 1.15357,0.79468 1.15357,2.23023 0,1.15356 -0.79468,1.89697 -0.79468,0.71777 -2.69165,0.71777 h -2.99927 q -6.38306,-9.86938 -10.58716,-11.86889 z m 0,-5.25513 h 4.10156 q 2.28149,0 4.07593,-0.69214 2.40966,-0.92285 3.22998,-1.94824 0.84594,-1.02539 0.84594,-2.02515 0,-1.48682 -1.58935,-2.74292 -1.58936,-1.28174 -4.63989,-1.28174 h -6.02417 z"
         id="path41" />
      <path
         style="font-weight:bold;font-size:52.5px;-inkscape-font-specification:'Courier New, Bold'"
         d="m 274.44562,532.59314 v 5.40894 h 5.30639 q 1.89698,0 2.69165,0.7434 0.82032,0.71778 0.82032,1.89698 0,1.15356 -0.82032,1.89697 -0.79467,0.71777 -2.69165,0.71777 h -11.38183 q -1.89697,0 -2.71729,-0.71777 -0.79467,-0.74341 -0.79467,-1.92261 0,-1.15356 0.82031,-1.87134 0.82031,-0.7434 2.69165,-0.7434 h 0.82031 v -20.55909 h -0.82031 q -1.89697,0 -2.71729,-0.71777 -0.79467,-0.74341 -0.79467,-1.92261 0,-1.1792 0.79467,-1.89697 0.82032,-0.74341 2.71729,-0.74341 l 12.09961,0.0256 q 5.33203,0 8.43384,2.92236 3.12744,2.89673 3.12744,7.07519 0,2.30713 -1.05103,4.35791 -0.79468,1.53809 -2.66601,3.05054 -1.84571,1.48682 -3.79395,2.25586 -1.92261,0.74341 -5.10132,0.74341 z m 0,-5.25513 h 4.8706 q 3.43506,0 5.43457,-1.53808 2.02515,-1.56372 2.02515,-3.74268 0,-1.8457 -1.64063,-3.22998 -1.61499,-1.38428 -4.63989,-1.38428 h -6.0498 z m 72.46948,7.45972 h -12.76611 l -1.28174,3.20435 h 1.28174 q 1.89697,0 2.69165,0.7434 0.82031,0.71778 0.82031,1.89698 0,1.15356 -0.82031,1.89697 -0.79468,0.71777 -2.69165,0.71777 h -7.0752 q -1.89697,0 -2.69165,-0.71777 -0.82031,-0.74341 -0.82031,-1.92261 0,-1.1792 0.84595,-1.92261 0.84594,-0.7434 2.79419,-0.69213 l 8.25439,-20.55909 h -3.43506 q -1.89697,0 -2.71728,-0.71777 -0.79468,-0.74341 -0.79468,-1.92261 0,-1.1792 0.79468,-1.89697 0.82031,-0.74341 2.71728,-0.74341 l 11.3562,0.0256 10.45899,25.81421 q 1.8457,0 2.4353,0.41015 1.1792,0.84595 1.1792,2.23023 0,1.15356 -0.79468,1.89697 -0.79468,0.71777 -2.69165,0.71777 h -7.07519 q -1.89698,0 -2.71729,-0.71777 -0.79468,-0.74341 -0.79468,-1.92261 0,-1.15356 0.79468,-1.87134 0.82031,-0.7434 2.71729,-0.7434 h 1.28173 z m -2.17895,-5.25513 -4.22974,-10.40771 -4.25537,10.40771 z m 51.09008,12.38159 q -0.69214,0.82032 -1.12793,1.05103 -0.41015,0.23071 -1.02539,0.23071 -1.20483,0 -1.94824,-0.79468 -0.71777,-0.82031 -0.71777,-2.69165 v -3.53759 q 0,-1.89698 0.71777,-2.69165 0.74341,-0.82032 1.94824,-0.82032 0.92285,0 1.53809,0.48706 0.64087,0.48707 0.97412,1.64063 0.33325,1.12793 0.69214,1.53809 0.74341,0.79467 2.64038,1.61499 1.89697,0.82031 4.15283,0.82031 3.51196,0 5.76782,-1.64063 1.43555,-0.99975 1.43555,-2.46093 0,-0.97413 -0.69214,-1.82007 -0.69214,-0.87158 -2.25586,-1.43555 -1.02539,-0.38452 -4.58862,-1.05102 -4.30664,-0.79468 -6.51123,-1.92261 -2.20459,-1.12793 -3.48633,-3.17871 -1.28174,-2.05078 -1.28174,-4.43482 0,-3.76831 3.15308,-6.58813 3.15307,-2.84546 8.20312,-2.84546 2.02515,0 3.74268,0.46142 1.74316,0.4358 3.15308,1.35865 1.02539,-0.99976 2.05078,-0.99976 1.15356,0 1.87133,0.82031 0.74341,0.79468 0.74341,2.66602 v 3.94775 q 0,1.89698 -0.74341,2.71729 -0.71777,0.79468 -1.87133,0.79468 -0.97412,0 -1.6919,-0.5896 -0.56396,-0.43579 -0.84595,-1.74317 -0.28198,-1.30737 -0.71777,-1.87134 -0.74341,-0.97412 -2.23022,-1.64062 -1.48682,-0.6665 -3.43506,-0.6665 -2.84546,0 -4.51172,1.333 -1.64063,1.30738 -1.64063,2.74292 0,0.97412 0.66651,1.89698 0.69214,0.89721 1.99951,1.40991 0.87158,0.35888 4.89624,1.15356 4.05029,0.79468 6.20361,1.74317 2.17896,0.94848 3.61451,2.97363 1.43554,2.02515 1.43554,4.81934 0,3.89648 -2.74292,6.22924 -3.64013,3.07618 -9.27978,3.07618 -2.17896,0 -4.25537,-0.53833 -2.05078,-0.5127 -3.99903,-1.56373 z m 73.23853,-24.4812 v 20.55909 h 3.5376 q 1.89697,0 2.69165,0.7434 0.82031,0.71778 0.82031,1.89698 0,1.15356 -0.82031,1.89697 -0.79468,0.71777 -2.69165,0.71777 h -12.30469 q -1.89697,0 -2.71729,-0.71777 -0.79467,-0.74341 -0.79467,-1.92261 0,-1.15356 0.79467,-1.87134 0.82032,-0.7434 2.71729,-0.7434 h 3.51196 v -20.55909 h -5.69092 v 4.97315 q 0,1.89697 -0.7434,2.71728 -0.71778,0.79468 -1.89698,0.79468 -1.15356,0 -1.89697,-0.79468 -0.71777,-0.82031 -0.71777,-2.71728 v -10.25391 l 27.22412,0.0256 v 10.22827 q 0,1.89697 -0.74341,2.71728 -0.71777,0.79468 -1.89697,0.79468 -1.15357,0 -1.89698,-0.79468 -0.71777,-0.82031 -0.71777,-2.71728 v -4.97315 z"
         id="path42" />
      <path
         style="font-weight:bold;font-size:52.5px;-inkscape-font-specification:'Courier New, Bold'"
         d="m 292.23615,593.34753 q 0,6.9983 -4.46045,11.66382 -4.43482,4.6399 -10.27955,4.6399 -5.25512,0 -9.48486,-3.87085 -5.22949,-4.79371 -5.22949,-12.43287 0,-7.63916 5.22949,-12.45849 4.22974,-3.87085 9.48486,-3.87085 5.84473,0 10.27955,4.66553 4.46045,4.63989 4.46045,11.66381 z m -5.25513,0 q 0,-4.7937 -2.89673,-7.92114 -2.89673,-3.15307 -6.58814,-3.15307 -3.66577,0 -6.5625,3.15307 -2.89672,3.15308 -2.89672,7.92114 0,4.76807 2.89672,7.92115 2.89673,3.12744 6.5625,3.12744 3.69141,0 6.58814,-3.12744 2.89673,-3.12744 2.89673,-7.92115 z m 46.93725,-5.61401 v 15.89356 h 1.89698 q 1.89697,0 2.69165,0.7434 0.82031,0.71778 0.82031,1.89698 0,1.15356 -0.82031,1.89697 -0.79468,0.71777 -2.69165,0.71777 h -6.89576 q -1.89697,0 -2.71728,-0.71777 -0.79468,-0.74341 -0.79468,-1.92261 0,-1.12793 0.79468,-1.87134 0.79468,-0.7434 2.46094,-0.7434 v -20.55909 h -0.82032 q -1.89697,0 -2.71728,-0.71777 -0.79468,-0.74341 -0.79468,-1.92261 0,-1.1792 0.79468,-1.89697 0.82031,-0.74341 2.71728,-0.74341 l 6.07544,0.0256 13.43262,21.07177 v -15.81665 h -1.89697 q -1.89697,0 -2.71729,-0.71777 -0.79467,-0.74341 -0.79467,-1.92261 0,-1.1792 0.79467,-1.89697 0.82032,-0.74341 2.71729,-0.74341 l 6.89575,0.0256 q 1.89697,0 2.69165,0.71777 0.82031,0.71777 0.82031,1.89697 0,1.15357 -0.79467,1.89697 -0.79468,0.74341 -2.43531,0.74341 v 25.81421 h -5.20385 z m 64.18946,8.17749 v 7.71607 h 13.40698 v -2.84546 q 0,-1.89698 0.71777,-2.69165 0.74341,-0.82032 1.92261,-0.82032 1.15356,0 1.87134,0.82032 0.74341,0.79467 0.74341,2.69165 v 8.10058 h -24.73755 q -1.89698,0 -2.71729,-0.71777 -0.79468,-0.74341 -0.79468,-1.92261 0,-1.15356 0.82032,-1.87134 0.82031,-0.7434 2.69165,-0.7434 h 0.82031 v -20.55909 h -0.82031 q -1.89698,0 -2.71729,-0.71777 -0.79468,-0.74341 -0.79468,-1.92261 0,-1.1792 0.79468,-1.89697 0.82031,-0.74341 2.71729,-0.74341 l 23.58398,0.0256 v 7.99804 q 0,1.87134 -0.71777,2.69165 -0.71777,0.79468 -1.89697,0.79468 -1.1792,0 -1.92261,-0.79468 -0.71777,-0.79467 -0.71777,-2.69165 v -2.74292 h -12.25342 v 7.58789 h 4.61425 q 0,-2.05078 0.38453,-2.64038 0.79467,-1.2561 2.25586,-1.2561 1.15356,0 1.87133,0.82031 0.74341,0.79468 0.74341,2.69165 v 6.04981 q 0,1.71753 -0.41015,2.30713 -0.82032,1.20483 -2.20459,1.20483 -1.46119,0 -2.25586,-1.2561 -0.38453,-0.5896 -0.38453,-2.66602 z"
         id="path43" />
    </g>
    <g
       id="text32"
       style="font-size:43.7491px;font-family:'Courier New';-inkscape-font-specification:'Courier New, Normal';fill:#ff9955;stroke-width:6.5625"
       inkscape:label="Text inactive"
       aria-label="    L     B F A M&#10;  C&#10;T W E N T Y F I V&#10;H A L F B T E N F&#10;        E R U N I&#10;      S I X&#10;F O U R F">
      <path
         style="font-weight:bold;font-size:52.5px;-inkscape-font-specification:'Courier New, Bold'"
         d="m 401.31207,254.94299 v 20.55909 h 11.33057 v -4.97315 q 0,-1.89697 0.71777,-2.69165 0.74341,-0.82031 1.92261,-0.82031 1.15356,0 1.87134,0.82031 0.74341,0.79468 0.74341,2.69165 v 10.22827 h -24.89136 q -1.89697,0 -2.71729,-0.71777 -0.79467,-0.74341 -0.79467,-1.92261 0,-1.15356 0.79467,-1.87134 0.82032,-0.7434 2.71729,-0.7434 h 3.05054 v -20.55909 h -3.05054 q -1.89697,0 -2.71729,-0.71777 -0.79467,-0.74341 -0.79467,-1.92261 0,-1.1792 0.79467,-1.89697 0.82032,-0.74341 2.71729,-0.74341 l 11.38183,0.0256 q 1.89698,0 2.69166,0.71777 0.82031,0.71777 0.82031,1.89697 0,1.1792 -0.82031,1.92261 -0.79468,0.71777 -2.69166,0.71777 z m 180.49439,20.55909 v -20.55909 h -0.82031 q -1.89698,0 -2.71729,-0.71777 -0.79468,-0.74341 -0.79468,-1.92261 0,-1.1792 0.79468,-1.89697 0.82031,-0.74341 2.71729,-0.74341 h 13.17626 q 4.7168,0 7.5879,2.64038 2.87109,2.61475 2.87109,6.22925 0,1.71753 -0.6665,3.22998 -0.66651,1.51245 -2.02515,2.79419 2.48657,1.48682 3.71704,3.48633 1.2561,1.97388 1.2561,4.48608 0,1.99951 -0.89721,3.71704 -0.66651,1.30738 -1.64063,2.07642 -1.30737,1.07666 -3.20434,1.7688 -1.89698,0.6665 -4.74244,0.6665 h -15.43212 q -1.89698,0 -2.71729,-0.71777 -0.79468,-0.74341 -0.79468,-1.92261 0,-1.15356 0.82031,-1.87134 0.82032,-0.7434 2.69166,-0.7434 z m 5.25512,-12.91993 h 5.76783 q 3.1018,0 5.15258,-1.56372 1.38428,-1.05102 1.38428,-2.61474 0,-1.38428 -1.30737,-2.40967 -1.30737,-1.05103 -4.15283,-1.05103 h -6.84449 z m 0,12.91993 h 9.07471 q 3.20435,0 4.51172,-0.94849 0.99976,-0.71777 0.99976,-2.05078 0,-1.58936 -1.97388,-3.12744 -1.97388,-1.53809 -5.66528,-1.53809 h -6.94703 z m 64.8816,-7.69043 v 7.69043 h 5.3833 q 1.89697,0 2.69165,0.7434 0.82031,0.71778 0.82031,1.89698 0,1.15356 -0.82031,1.89697 -0.79468,0.71777 -2.69165,0.71777 h -11.45874 q -1.89698,0 -2.71729,-0.71777 -0.79468,-0.74341 -0.79468,-1.92261 0,-1.15356 0.82032,-1.87134 0.82031,-0.7434 2.69165,-0.7434 h 0.82031 v -20.55909 h -0.82031 q -1.89698,0 -2.71729,-0.71777 -0.79468,-0.74341 -0.79468,-1.92261 0,-1.1792 0.79468,-1.89697 0.82031,-0.74341 2.71729,-0.74341 l 24.73755,0.0256 v 8.02368 q 0,1.87134 -0.74341,2.69165 -0.71778,0.79468 -1.89698,0.79468 -1.15356,0 -1.89697,-0.79468 -0.71777,-0.79468 -0.71777,-2.69165 v -2.76856 h -13.40698 v 7.61353 h 4.61425 q 0,-2.05078 0.38453,-2.64038 0.79467,-1.25611 2.25585,-1.25611 1.15357,0 1.87134,0.82032 0.74341,0.79467 0.74341,2.69165 v 6.0498 q 0,1.89697 -0.74341,2.71729 -0.71777,0.79467 -1.89697,0.79467 -1.43555,0 -2.23022,-1.2561 -0.38453,-0.5896 -0.38453,-2.66601 z m 73.03344,4.48608 h -12.76611 l -1.28174,3.20435 h 1.28174 q 1.89697,0 2.69165,0.7434 0.82031,0.71778 0.82031,1.89698 0,1.15356 -0.82031,1.89697 -0.79468,0.71777 -2.69165,0.71777 h -7.0752 q -1.89697,0 -2.69165,-0.71777 -0.82031,-0.74341 -0.82031,-1.92261 0,-1.1792 0.84595,-1.92261 0.84595,-0.7434 2.79419,-0.69213 l 8.25439,-20.55909 h -3.43506 q -1.89697,0 -2.71728,-0.71777 -0.79468,-0.74341 -0.79468,-1.92261 0,-1.1792 0.79468,-1.89697 0.82031,-0.74341 2.71728,-0.74341 l 11.35621,0.0256 10.45898,25.81421 q 1.8457,0 2.4353,0.41015 1.1792,0.84595 1.1792,2.23023 0,1.15356 -0.79468,1.89697 -0.79467,0.71777 -2.69165,0.71777 h -7.07519 q -1.89697,0 -2.71729,-0.71777 -0.79467,-0.74341 -0.79467,-1.92261 0,-1.15356 0.79467,-1.87134 0.82032,-0.7434 2.71729,-0.7434 h 1.28174 z m -2.17895,-5.25513 -4.22974,-10.40771 -4.25537,10.40771 z m 50.55176,-7.20337 v 15.66285 h 1.89697 q 1.89697,0 2.69165,0.7434 0.82031,0.71778 0.82031,1.89698 0,1.15356 -0.82031,1.89697 -0.79468,0.71777 -2.69165,0.71777 h -6.89575 q -1.89698,0 -2.69165,-0.71777 -0.82032,-0.74341 -0.82032,-1.92261 0,-1.15356 0.79468,-1.87134 0.79468,-0.7434 2.46094,-0.7434 v -20.55909 q -1.38428,-0.12817 -2.10205,-0.84594 -0.69214,-0.71778 -0.69214,-1.79444 0,-1.1792 0.79468,-1.89697 0.82031,-0.74341 2.71728,-0.74341 l 5.76783,0.0256 7.15209,15.81665 7.02393,-15.84229 5.81909,0.0256 q 1.89697,0 2.69165,0.71777 0.82032,0.71777 0.82032,1.89697 0,1.07666 -0.71778,1.79444 -0.71777,0.71777 -2.07641,0.84594 v 20.55909 q 1.66626,0 2.46093,0.7434 0.79468,0.74341 0.79468,1.89698 0,1.15356 -0.82031,1.89697 -0.79468,0.71777 -2.69165,0.71777 h -6.92139 q -1.87134,0 -2.69165,-0.71777 -0.79468,-0.74341 -0.79468,-1.92261 0,-1.15356 0.79468,-1.87134 0.82031,-0.7434 2.69165,-0.7434 h 1.92261 v -15.66285 l -6.02417,13.53516 h -4.56299 z"
         id="path32" />
      <path
         style="font-weight:bold;font-size:52.5px;-inkscape-font-specification:'Courier New, Bold'"
         d="m 348.73517,316.64587 q 0.48706,-0.6665 1.05102,-0.99975 0.5896,-0.33325 1.25611,-0.33325 1.15356,0 1.87134,0.79467 0.7434,0.79468 0.7434,2.69165 v 4.46045 q 0,1.89698 -0.7434,2.71729 -0.71778,0.79468 -1.87134,0.79468 -1.05103,0 -1.6919,-0.5896 -0.64087,-0.5896 -0.94848,-2.20459 -0.17945,-1.07666 -0.71778,-1.66626 -1.05102,-1.15357 -2.94799,-1.84571 -1.87134,-0.69213 -3.76832,-0.69213 -2.35839,0 -4.33227,1.02539 -1.97388,1.02539 -3.48633,3.33252 -1.51245,2.30712 -1.51245,5.48584 v 3.40942 q 0,3.79394 2.74292,6.33179 2.76855,2.53784 7.66479,2.53784 2.92237,0 4.94751,-0.79468 1.1792,-0.46143 2.51221,-1.82007 0.82031,-0.82031 1.28174,-1.05102 0.46143,-0.25635 1.05103,-0.25635 1.05102,0 1.8457,0.79468 0.79468,0.79467 0.79468,1.87133 0,1.07666 -1.07666,2.30713 -1.56372,1.79444 -4.02466,2.81983 -3.30689,1.38428 -7.30591,1.38428 -4.66553,0 -8.4082,-1.92261 -3.02491,-1.53809 -5.15259,-4.84497 -2.12769,-3.33252 -2.12769,-7.25464 v -3.56323 q 0,-4.10157 1.89698,-7.63916 1.9226,-3.56324 5.30639,-5.48584 3.38379,-1.92261 7.17774,-1.92261 2.28149,0 4.25537,0.53833 1.99951,0.51269 3.71704,1.58935 z"
         id="path33" />
      <path
         style="font-weight:bold;font-size:52.5px;-inkscape-font-specification:'Courier New, Bold'"
         d="m 280.034,386.19299 v 20.55909 h 3.53759 q 1.89698,0 2.69165,0.7434 0.82032,0.71778 0.82032,1.89698 0,1.15356 -0.82032,1.89697 -0.79467,0.71777 -2.69165,0.71777 h -12.30468 q -1.89698,0 -2.71729,-0.71777 -0.79468,-0.74341 -0.79468,-1.92261 0,-1.15356 0.79468,-1.87134 0.82031,-0.7434 2.71729,-0.7434 h 3.51196 v -20.55909 h -5.69092 v 4.97315 q 0,1.89697 -0.74341,2.71728 -0.71777,0.79468 -1.89697,0.79468 -1.15356,0 -1.89697,-0.79468 -0.71778,-0.82031 -0.71778,-2.71728 v -10.25391 l 27.22413,0.0256 v 10.22827 q 0,1.89697 -0.74341,2.71728 -0.71778,0.79468 -1.89698,0.79468 -1.15356,0 -1.89697,-0.79468 -0.71777,-0.82031 -0.71777,-2.71728 v -4.97315 z m 60.47241,10.89478 -4.87061,14.91943 h -5.89599 l -3.12744,-25.81421 q -1.20484,-0.15381 -1.82007,-0.82031 -0.61524,-0.69214 -0.61524,-1.74316 0,-1.23047 0.79468,-1.97388 0.82031,-0.74341 2.71729,-0.74341 l 6.99829,0.0256 q 1.89697,0 2.69165,0.71777 0.82031,0.71777 0.82031,1.89697 0,1.1792 -0.82031,1.92261 -0.79468,0.71777 -2.69165,0.71777 h -2.74292 l 1.74316,14.68872 4.1272,-12.22778 h 5.4602 l 4.10157,12.22778 1.74316,-14.68872 h -2.74292 q -1.89697,0 -2.71729,-0.71777 -0.79467,-0.74341 -0.79467,-1.92261 0,-1.1792 0.79467,-1.89697 0.82032,-0.74341 2.71729,-0.74341 l 6.97266,0.0256 q 1.89697,0 2.69165,0.71777 0.82031,0.71777 0.82031,1.89697 0,0.99976 -0.64087,1.71753 -0.64087,0.71778 -1.8457,0.92285 l -3.02491,25.81421 h -5.79345 z m 57.60132,1.94824 v 7.71607 h 13.40698 v -2.84546 q 0,-1.89698 0.71777,-2.69165 0.74341,-0.82032 1.92261,-0.82032 1.15356,0 1.87134,0.82032 0.74341,0.79467 0.74341,2.69165 v 8.10058 h -24.73755 q -1.89698,0 -2.71729,-0.71777 -0.79468,-0.74341 -0.79468,-1.92261 0,-1.15356 0.82032,-1.87134 0.82031,-0.7434 2.69165,-0.7434 h 0.82031 v -20.55909 h -0.82031 q -1.89698,0 -2.71729,-0.71777 -0.79468,-0.74341 -0.79468,-1.92261 0,-1.1792 0.79468,-1.89697 0.82031,-0.74341 2.71729,-0.74341 l 23.58398,0.0256 v 7.99804 q 0,1.87134 -0.71777,2.69165 -0.71777,0.79468 -1.89697,0.79468 -1.1792,0 -1.92261,-0.79468 -0.71777,-0.79467 -0.71777,-2.69165 v -2.74292 h -12.25342 v 7.58789 h 4.61425 q 0,-2.05078 0.38453,-2.64038 0.79467,-1.2561 2.25586,-1.2561 1.15356,0 1.87133,0.82031 0.74341,0.79468 0.74341,2.69165 v 6.04981 q 0,1.71753 -0.41015,2.30713 -0.82032,1.20483 -2.20459,1.20483 -1.46119,0 -2.25586,-1.2561 -0.38453,-0.5896 -0.38453,-2.66602 z m 61.83105,-8.17749 v 15.89356 h 1.89697 q 1.89698,0 2.69165,0.7434 0.82032,0.71778 0.82032,1.89698 0,1.15356 -0.82032,1.89697 -0.79467,0.71777 -2.69165,0.71777 H 454.94 q -1.89697,0 -2.71728,-0.71777 -0.79468,-0.74341 -0.79468,-1.92261 0,-1.12793 0.79468,-1.87134 0.79468,-0.7434 2.46093,-0.7434 v -20.55909 h -0.82031 q -1.89697,0 -2.71728,-0.71777 -0.79468,-0.74341 -0.79468,-1.92261 0,-1.1792 0.79468,-1.89697 0.82031,-0.74341 2.71728,-0.74341 l 6.07544,0.0256 13.43262,21.07177 v -15.81665 h -1.89697 q -1.89698,0 -2.71729,-0.71777 -0.79468,-0.74341 -0.79468,-1.92261 0,-1.1792 0.79468,-1.89697 0.82031,-0.74341 2.71729,-0.74341 l 6.89575,0.0256 q 1.89697,0 2.69165,0.71777 0.82031,0.71777 0.82031,1.89697 0,1.15357 -0.79468,1.89697 -0.79467,0.74341 -2.4353,0.74341 v 25.81421 h -5.20386 z m 72.13623,-4.66553 v 20.55909 h 3.5376 q 1.89697,0 2.69165,0.7434 0.82031,0.71778 0.82031,1.89698 0,1.15356 -0.82031,1.89697 -0.79468,0.71777 -2.69165,0.71777 h -12.30469 q -1.89697,0 -2.71728,-0.71777 -0.79468,-0.74341 -0.79468,-1.92261 0,-1.15356 0.79468,-1.87134 0.82031,-0.7434 2.71728,-0.7434 h 3.51197 v -20.55909 h -5.69092 v 4.97315 q 0,1.89697 -0.74341,2.71728 -0.71777,0.79468 -1.89697,0.79468 -1.15357,0 -1.89698,-0.79468 -0.71777,-0.82031 -0.71777,-2.71728 v -10.25391 l 27.22412,0.0256 v 10.22827 q 0,1.89697 -0.74341,2.71728 -0.71777,0.79468 -1.89697,0.79468 -1.15356,0 -1.89697,-0.79468 -0.71778,-0.82031 -0.71778,-2.71728 v -4.97315 z m 63.1128,12.76612 v 7.79297 h 3.53759 q 1.89698,0 2.69165,0.7434 0.82032,0.71778 0.82032,1.89698 0,1.15356 -0.82032,1.89697 -0.79467,0.71777 -2.69165,0.71777 h -12.33032 q -1.87134,0 -2.69165,-0.71777 -0.79468,-0.74341 -0.79468,-1.92261 0,-1.15356 0.79468,-1.87134 0.82031,-0.7434 2.69165,-0.7434 h 3.5376 v -7.79297 l -8.69019,-12.76612 q -1.74316,0 -2.56347,-0.74341 -0.79468,-0.7434 -0.79468,-1.89697 0,-1.1792 0.79468,-1.89697 0.82031,-0.74341 2.71728,-0.74341 l 4.76807,0.0256 q 1.89697,0 2.69165,0.71777 0.82031,0.71777 0.82031,1.89697 0,1.7688 -2.07642,2.64038 l 4.97315,7.33155 4.8706,-7.33155 q -1.15356,-0.43579 -1.64062,-1.10229 -0.48706,-0.66651 -0.48706,-1.53809 0,-1.1792 0.79468,-1.89697 0.82031,-0.71777 2.71728,-0.74341 l 4.94751,0.0256 q 1.89697,0 2.69165,0.71777 0.82031,0.71777 0.82031,1.89697 0,1.1792 -0.82031,1.92261 -0.82031,0.71777 -2.66601,0.71777 z m 56.75537,0.10254 v 7.69043 h 5.3833 q 1.89697,0 2.69165,0.7434 0.82031,0.71778 0.82031,1.89698 0,1.15356 -0.82031,1.89697 -0.79468,0.71777 -2.69165,0.71777 h -11.45874 q -1.89698,0 -2.71729,-0.71777 -0.79468,-0.74341 -0.79468,-1.92261 0,-1.15356 0.82032,-1.87134 0.82031,-0.7434 2.69165,-0.7434 h 0.82031 v -20.55909 h -0.82031 q -1.89698,0 -2.71729,-0.71777 -0.79468,-0.74341 -0.79468,-1.92261 0,-1.1792 0.79468,-1.89697 0.82031,-0.74341 2.71729,-0.74341 l 24.73755,0.0256 v 8.02368 q 0,1.87134 -0.74341,2.69165 -0.71778,0.79468 -1.89698,0.79468 -1.15356,0 -1.89697,-0.79468 -0.71777,-0.79468 -0.71777,-2.69165 v -2.76856 h -13.40698 v 7.61353 h 4.61425 q 0,-2.05078 0.38453,-2.64038 0.79467,-1.25611 2.25585,-1.25611 1.15357,0 1.87134,0.82032 0.74341,0.79467 0.74341,2.69165 v 6.0498 q 0,1.89697 -0.74341,2.71729 -0.71777,0.79467 -1.89697,0.79467 -1.43555,0 -2.23022,-1.2561 -0.38453,-0.5896 -0.38453,-2.66601 z m 69.2395,-12.86866 v 20.55909 h 5.30639 q 1.89698,0 2.69166,0.7434 0.82031,0.71778 0.82031,1.89698 0,1.15356 -0.82031,1.89697 -0.79468,0.71777 -2.69166,0.71777 h -15.86792 q -1.89697,0 -2.71728,-0.71777 -0.79468,-0.74341 -0.79468,-1.92261 0,-1.15356 0.79468,-1.87134 0.82031,-0.7434 2.71728,-0.7434 h 5.3064 v -20.55909 h -5.3064 q -1.89697,0 -2.71728,-0.71777 -0.79468,-0.74341 -0.79468,-1.92261 0,-1.1792 0.79468,-1.89697 0.82031,-0.74341 2.71728,-0.74341 l 15.86792,0.0256 q 1.89698,0 2.69166,0.71777 0.82031,0.71777 0.82031,1.89697 0,1.1792 -0.82031,1.92261 -0.79468,0.71777 -2.69166,0.71777 z m 60.36987,18.14942 7.61353,-18.14942 h -1.20484 q -1.89697,0 -2.71728,-0.71777 -0.79468,-0.74341 -0.79468,-1.92261 0,-1.1792 0.79468,-1.89697 0.82031,-0.74341 2.71728,-0.74341 l 7.04956,0.0256 q 1.89698,0 2.69165,0.71777 0.82032,0.71777 0.82032,1.89697 0,1.40991 -1.23047,2.23023 -0.5896,0.41015 -2.40967,0.41015 l -10.79224,25.81421 h -5.05005 l -10.7666,-25.81421 q -1.8457,0 -2.4353,-0.41015 -1.23047,-0.79468 -1.23047,-2.23023 0,-1.1792 0.82031,-1.89697 0.79468,-0.74341 2.69165,-0.74341 l 7.10083,0.0256 q 1.87134,0 2.66602,0.71777 0.82031,0.71777 0.82031,1.89697 0,1.1792 -0.79468,1.92261 -0.79467,0.71777 -2.69165,0.71777 h -1.23046 z"
         id="path34" />
      <path
         style="font-weight:bold;font-size:52.5px;-inkscape-font-specification:'Courier New, Bold'"
         d="m 283.23834,464.76355 h -11.22803 v 7.61353 h 0.82032 q 1.89697,0 2.69165,0.7434 0.82031,0.71778 0.82031,1.89698 0,1.15356 -0.82031,1.89697 -0.79468,0.71777 -2.69165,0.71777 h -6.43433 q -1.89697,0 -2.71728,-0.71777 -0.79468,-0.74341 -0.79468,-1.92261 0,-1.43555 1.2561,-2.23022 0.61524,-0.41016 2.61475,-0.38452 v -20.55909 q -1.38428,-0.12817 -2.10205,-0.84594 -0.69214,-0.71778 -0.69214,-1.79444 0,-1.1792 0.79468,-1.89697 0.82031,-0.74341 2.71728,-0.74341 l 5.35767,0.0256 q 1.89697,0 2.69165,0.71777 0.82031,0.71777 0.82031,1.89697 0,1.1792 -0.82031,1.92261 -0.79468,0.71777 -2.69165,0.71777 h -0.82032 v 7.69043 h 11.22803 v -7.69043 h -0.82031 q -1.89697,0 -2.71729,-0.71777 -0.79467,-0.74341 -0.79467,-1.92261 0,-1.1792 0.79467,-1.89697 0.82032,-0.74341 2.71729,-0.74341 l 5.35767,0.0256 q 1.89697,0 2.69165,0.71777 0.82031,0.71777 0.82031,1.89697 0,1.07666 -0.71777,1.79444 -0.69214,0.71777 -2.07642,0.84594 v 20.55909 q 2.02515,0 2.61475,0.38452 1.2561,0.79467 1.2561,2.25586 0,1.15356 -0.82031,1.89697 -0.79468,0.71777 -2.69165,0.71777 h -6.43433 q -1.89697,0 -2.71729,-0.71777 -0.79467,-0.74341 -0.79467,-1.92261 0,-1.15356 0.82031,-1.87134 0.82031,-0.7434 2.69165,-0.7434 h 0.82031 z m 63.67676,4.40918 h -12.76611 l -1.28174,3.20435 h 1.28174 q 1.89697,0 2.69165,0.7434 0.82031,0.71778 0.82031,1.89698 0,1.15356 -0.82031,1.89697 -0.79468,0.71777 -2.69165,0.71777 h -7.0752 q -1.89697,0 -2.69165,-0.71777 -0.82031,-0.74341 -0.82031,-1.92261 0,-1.1792 0.84595,-1.92261 0.84594,-0.7434 2.79419,-0.69213 l 8.25439,-20.55909 h -3.43506 q -1.89697,0 -2.71728,-0.71777 -0.79468,-0.74341 -0.79468,-1.92261 0,-1.1792 0.79468,-1.89697 0.82031,-0.74341 2.71728,-0.74341 l 11.3562,0.0256 10.45899,25.81421 q 1.8457,0 2.4353,0.41015 1.1792,0.84595 1.1792,2.23023 0,1.15356 -0.79468,1.89697 -0.79468,0.71777 -2.69165,0.71777 h -7.07519 q -1.89698,0 -2.71729,-0.71777 -0.79468,-0.74341 -0.79468,-1.92261 0,-1.15356 0.79468,-1.87134 0.82031,-0.7434 2.71729,-0.7434 h 1.28173 z m -2.17895,-5.25513 -4.22974,-10.40771 -4.25537,10.40771 z m 56.57592,-12.09961 v 20.55909 h 11.33057 v -4.97315 q 0,-1.89697 0.71777,-2.69165 0.74341,-0.82031 1.92261,-0.82031 1.15356,0 1.87134,0.82031 0.74341,0.79468 0.74341,2.69165 v 10.22827 h -24.89136 q -1.89697,0 -2.71729,-0.71777 -0.79467,-0.74341 -0.79467,-1.92261 0,-1.15356 0.79467,-1.87134 0.82032,-0.7434 2.71729,-0.7434 h 3.05054 v -20.55909 h -3.05054 q -1.89697,0 -2.71729,-0.71777 -0.79467,-0.74341 -0.79467,-1.92261 0,-1.1792 0.79467,-1.89697 0.82032,-0.74341 2.71729,-0.74341 l 11.38183,0.0256 q 1.89698,0 2.69166,0.71777 0.82031,0.71777 0.82031,1.89697 0,1.1792 -0.82031,1.92261 -0.79468,0.71777 -2.69166,0.71777 z m 61.60034,12.86866 v 7.69043 h 5.38331 q 1.89697,0 2.69165,0.7434 0.82031,0.71778 0.82031,1.89698 0,1.15356 -0.82031,1.89697 -0.79468,0.71777 -2.69165,0.71777 h -11.45874 q -1.89698,0 -2.71729,-0.71777 -0.79468,-0.74341 -0.79468,-1.92261 0,-1.15356 0.82031,-1.87134 0.82032,-0.7434 2.69166,-0.7434 h 0.82031 v -20.55909 h -0.82031 q -1.89698,0 -2.71729,-0.71777 -0.79468,-0.74341 -0.79468,-1.92261 0,-1.1792 0.79468,-1.89697 0.82031,-0.74341 2.71729,-0.74341 l 24.73754,0.0256 v 8.02368 q 0,1.87134 -0.7434,2.69165 -0.71778,0.79468 -1.89698,0.79468 -1.15356,0 -1.89697,-0.79468 -0.71777,-0.79468 -0.71777,-2.69165 v -2.76856 h -13.40699 v 7.61353 h 4.61426 q 0,-2.05078 0.38452,-2.64038 0.79468,-1.25611 2.25586,-1.25611 1.15357,0 1.87134,0.82032 0.74341,0.79467 0.74341,2.69165 v 6.0498 q 0,1.89697 -0.74341,2.71729 -0.71777,0.79467 -1.89697,0.79467 -1.43555,0 -2.23023,-1.2561 -0.38452,-0.5896 -0.38452,-2.66601 z m 55.88379,7.69043 v -20.55909 h -0.82031 q -1.89697,0 -2.71728,-0.71777 -0.79468,-0.74341 -0.79468,-1.92261 0,-1.1792 0.79468,-1.89697 0.82031,-0.74341 2.71728,-0.74341 h 13.17627 q 4.7168,0 7.58789,2.64038 2.8711,2.61475 2.8711,6.22925 0,1.71753 -0.66651,3.22998 -0.6665,1.51245 -2.02515,2.79419 2.48658,1.48682 3.71705,3.48633 1.2561,1.97388 1.2561,4.48608 0,1.99951 -0.89722,3.71704 -0.6665,1.30738 -1.64062,2.07642 -1.30738,1.07666 -3.20435,1.7688 -1.89697,0.6665 -4.74243,0.6665 h -15.43213 q -1.89697,0 -2.71728,-0.71777 -0.79468,-0.74341 -0.79468,-1.92261 0,-1.15356 0.82031,-1.87134 0.82031,-0.7434 2.69165,-0.7434 z m 5.25513,-12.91993 h 5.76782 q 3.10181,0 5.15259,-1.56372 1.38428,-1.05102 1.38428,-2.61474 0,-1.38428 -1.30737,-2.40967 -1.30738,-1.05103 -4.15284,-1.05103 h -6.84448 z m 0,12.91993 h 9.07471 q 3.20434,0 4.51172,-0.94849 0.99975,-0.71777 0.99975,-2.05078 0,-1.58936 -1.97387,-3.12744 -1.97388,-1.53809 -5.66529,-1.53809 h -6.94702 z m 71.03394,-20.55909 v 20.55909 h 3.53759 q 1.89698,0 2.69165,0.7434 0.82032,0.71778 0.82032,1.89698 0,1.15356 -0.82032,1.89697 -0.79467,0.71777 -2.69165,0.71777 h -12.30468 q -1.89698,0 -2.71729,-0.71777 -0.79468,-0.74341 -0.79468,-1.92261 0,-1.15356 0.79468,-1.87134 0.82031,-0.7434 2.71729,-0.7434 h 3.51196 v -20.55909 h -5.69092 v 4.97315 q 0,1.89697 -0.74341,2.71728 -0.71777,0.79468 -1.89697,0.79468 -1.15356,0 -1.89697,-0.79468 -0.71778,-0.82031 -0.71778,-2.71728 v -10.25391 l 27.22413,0.0256 v 10.22827 q 0,1.89697 -0.74341,2.71728 -0.71778,0.79468 -1.89698,0.79468 -1.15356,0 -1.89697,-0.79468 -0.71777,-0.82031 -0.71777,-2.71728 v -4.97315 z m 55.06347,12.84302 v 7.71607 h 13.40699 v -2.84546 q 0,-1.89698 0.71777,-2.69165 0.74341,-0.82032 1.92261,-0.82032 1.15356,0 1.87133,0.82032 0.74341,0.79467 0.74341,2.69165 v 8.10058 H 644.0733 q -1.89697,0 -2.71728,-0.71777 -0.79468,-0.74341 -0.79468,-1.92261 0,-1.15356 0.82031,-1.87134 0.82032,-0.7434 2.69165,-0.7434 h 0.82032 v -20.55909 h -0.82032 q -1.89697,0 -2.71728,-0.71777 -0.79468,-0.74341 -0.79468,-1.92261 0,-1.1792 0.79468,-1.89697 0.82031,-0.74341 2.71728,-0.74341 l 23.58399,0.0256 v 7.99804 q 0,1.87134 -0.71778,2.69165 -0.71777,0.79468 -1.89697,0.79468 -1.1792,0 -1.92261,-0.79468 -0.71777,-0.79467 -0.71777,-2.69165 v -2.74292 h -12.25342 v 7.58789 h 4.61426 q 0,-2.05078 0.38452,-2.64038 0.79468,-1.2561 2.25586,-1.2561 1.15357,0 1.87134,0.82031 0.74341,0.79468 0.74341,2.69165 v 6.04981 q 0,1.71753 -0.41016,2.30713 -0.82031,1.20483 -2.20459,1.20483 -1.46118,0 -2.25586,-1.2561 -0.38452,-0.5896 -0.38452,-2.66602 z m 61.83106,-8.17749 v 15.89356 h 1.89697 q 1.89697,0 2.69165,0.7434 0.82031,0.71778 0.82031,1.89698 0,1.15356 -0.82031,1.89697 -0.79468,0.71777 -2.69165,0.71777 h -6.89575 q -1.89697,0 -2.71729,-0.71777 -0.79467,-0.74341 -0.79467,-1.92261 0,-1.12793 0.79467,-1.87134 0.79468,-0.7434 2.46094,-0.7434 v -20.55909 h -0.82031 q -1.89697,0 -2.71729,-0.71777 -0.79467,-0.74341 -0.79467,-1.92261 0,-1.1792 0.79467,-1.89697 0.82032,-0.74341 2.71729,-0.74341 l 6.07544,0.0256 13.43261,21.07177 v -15.81665 h -1.89697 q -1.89697,0 -2.71728,-0.71777 -0.79468,-0.74341 -0.79468,-1.92261 0,-1.1792 0.79468,-1.89697 0.82031,-0.74341 2.71728,-0.74341 l 6.89575,0.0256 q 1.89698,0 2.69165,0.71777 0.82032,0.71777 0.82032,1.89697 0,1.15357 -0.79468,1.89697 -0.79468,0.74341 -2.4353,0.74341 v 25.81421 h -5.20386 z m 65.98388,8.20313 v 7.69043 h 5.3833 q 1.89698,0 2.69166,0.7434 0.82031,0.71778 0.82031,1.89698 0,1.15356 -0.82031,1.89697 -0.79468,0.71777 -2.69166,0.71777 h -11.45874 q -1.89697,0 -2.71728,-0.71777 -0.79468,-0.74341 -0.79468,-1.92261 0,-1.15356 0.82031,-1.87134 0.82032,-0.7434 2.69165,-0.7434 h 0.82032 v -20.55909 h -0.82032 q -1.89697,0 -2.71728,-0.71777 -0.79468,-0.74341 -0.79468,-1.92261 0,-1.1792 0.79468,-1.89697 0.82031,-0.74341 2.71728,-0.74341 l 24.73755,0.0256 v 8.02368 q 0,1.87134 -0.7434,2.69165 -0.71778,0.79468 -1.89698,0.79468 -1.15356,0 -1.89697,-0.79468 -0.71777,-0.79468 -0.71777,-2.69165 v -2.76856 h -13.40699 v 7.61353 h 4.61426 q 0,-2.05078 0.38452,-2.64038 0.79468,-1.25611 2.25586,-1.25611 1.15357,0 1.87134,0.82032 0.74341,0.79467 0.74341,2.69165 v 6.0498 q 0,1.89697 -0.74341,2.71729 -0.71777,0.79467 -1.89697,0.79467 -1.43555,0 -2.23023,-1.2561 -0.38452,-0.5896 -0.38452,-2.66601 z"
         id="path35" />
      <path
         style="font-weight:bold;font-size:52.5px;-inkscape-font-specification:'Courier New, Bold'"
         d="m 524.12823,530.28601 v 7.71607 h 13.40699 v -2.84546 q 0,-1.89698 0.71777,-2.69165 0.74341,-0.82032 1.92261,-0.82032 1.15356,0 1.87134,0.82032 0.7434,0.79467 0.7434,2.69165 v 8.10058 H 518.0528 q -1.89698,0 -2.71729,-0.71777 -0.79468,-0.74341 -0.79468,-1.92261 0,-1.15356 0.82032,-1.87134 0.82031,-0.7434 2.69165,-0.7434 h 0.82031 v -20.55909 h -0.82031 q -1.89698,0 -2.71729,-0.71777 -0.79468,-0.74341 -0.79468,-1.92261 0,-1.1792 0.79468,-1.89697 0.82031,-0.74341 2.71729,-0.74341 l 23.58398,0.0256 v 7.99804 q 0,1.87134 -0.71777,2.69165 -0.71778,0.79468 -1.89698,0.79468 -1.1792,0 -1.9226,-0.79468 -0.71778,-0.79467 -0.71778,-2.69165 v -2.74292 h -12.25342 v 7.58789 h 4.61426 q 0,-2.05078 0.38452,-2.64038 0.79468,-1.2561 2.25586,-1.2561 1.15357,0 1.87134,0.82031 0.74341,0.79468 0.74341,2.69165 v 6.04981 q 0,1.71753 -0.41016,2.30713 -0.82031,1.20483 -2.20459,1.20483 -1.46118,0 -2.25586,-1.2561 -0.38452,-0.5896 -0.38452,-2.66602 z m 62.98462,1.1023 v 6.61377 h 1.89698 q 1.89697,0 2.69165,0.7434 0.82031,0.71778 0.82031,1.89698 0,1.15356 -0.82031,1.89697 -0.79468,0.71777 -2.69165,0.71777 h -7.97242 q -1.89697,0 -2.71728,-0.71777 -0.79468,-0.74341 -0.79468,-1.92261 0,-1.15356 0.82031,-1.87134 0.82032,-0.7434 2.69165,-0.7434 h 0.82032 v -20.55909 h -0.82032 q -1.89697,0 -2.71728,-0.71777 -0.79468,-0.74341 -0.79468,-1.92261 0,-1.1792 0.79468,-1.89697 0.82031,-0.74341 2.71728,-0.74341 l 11.89454,0.0256 q 5.56274,0 8.61328,2.76855 3.07617,2.74292 3.07617,6.69067 0,2.46094 -1.43555,4.48609 -1.43554,1.99951 -4.33227,3.56323 1.66626,1.46118 3.56323,3.74268 1.1792,1.46118 3.17871,4.56299 1.99951,0 2.64038,0.41015 1.15357,0.79468 1.15357,2.23023 0,1.15356 -0.79468,1.89697 -0.79468,0.71777 -2.69165,0.71777 h -2.99927 q -6.38306,-9.86938 -10.58716,-11.86889 z m 0,-5.25513 h 4.10157 q 2.28149,0 4.07592,-0.69214 2.40967,-0.92285 3.22998,-1.94824 0.84595,-1.02539 0.84595,-2.02515 0,-1.48682 -1.58935,-2.74292 -1.58936,-1.28174 -4.6399,-1.28174 h -6.02417 z m 80.4419,-8.69019 v 14.8938 q 0,4.87061 -3.51196,8.28003 -3.48633,3.40943 -8.40821,3.40943 -2.4353,0 -4.58862,-0.84595 -2.12769,-0.87158 -3.84522,-2.53784 -1.69189,-1.66626 -2.64038,-3.4607 -0.94848,-1.82007 -0.94848,-4.84497 v -14.8938 q -1.66626,0 -2.46094,-0.74341 -0.79468,-0.7434 -0.79468,-1.89697 0,-1.1792 0.79468,-1.89697 0.79468,-0.71777 2.71729,-0.71777 l 6.89575,-0.0256 q 1.89697,0 2.69165,0.74341 0.82031,0.71777 0.82031,1.89697 0,1.1792 -0.82031,1.92261 -0.79468,0.71777 -2.69165,0.71777 H 648.867 v 15.35523 q 0,2.3584 1.94825,4.17846 1.97387,1.79444 4.74243,1.79444 1.8457,0 3.46069,-0.87158 1.61499,-0.87159 2.64038,-2.53785 0.64087,-1.05102 0.64087,-2.56347 v -15.35523 h -1.89697 q -1.89697,0 -2.71729,-0.71777 -0.79467,-0.74341 -0.79467,-1.92261 0,-1.1792 0.79467,-1.89697 0.82032,-0.74341 2.71729,-0.74341 l 6.89575,0.0256 q 1.89697,0 2.69165,0.71777 0.82031,0.71777 0.82031,1.89697 0,1.15357 -0.79467,1.89697 -0.79468,0.74341 -2.46094,0.74341 z m 44.42505,4.66553 v 15.89356 h 1.89697 q 1.89697,0 2.69165,0.7434 0.82031,0.71778 0.82031,1.89698 0,1.15356 -0.82031,1.89697 -0.79468,0.71777 -2.69165,0.71777 h -6.89575 q -1.89697,0 -2.71729,-0.71777 -0.79467,-0.74341 -0.79467,-1.92261 0,-1.12793 0.79467,-1.87134 0.79468,-0.7434 2.46094,-0.7434 v -20.55909 h -0.82031 q -1.89697,0 -2.71729,-0.71777 -0.79467,-0.74341 -0.79467,-1.92261 0,-1.1792 0.79467,-1.89697 0.82032,-0.74341 2.71729,-0.74341 l 6.07544,0.0256 13.43261,21.07177 v -15.81665 h -1.89697 q -1.89697,0 -2.71728,-0.71777 -0.79468,-0.74341 -0.79468,-1.92261 0,-1.1792 0.79468,-1.89697 0.82031,-0.74341 2.71728,-0.74341 l 6.89575,0.0256 q 1.89698,0 2.69165,0.71777 0.82032,0.71777 0.82032,1.89697 0,1.15357 -0.79468,1.89697 -0.79468,0.74341 -2.4353,0.74341 v 25.81421 h -5.20386 z m 72.21313,-4.66553 v 20.55909 h 5.3064 q 1.89697,0 2.69165,0.7434 0.82031,0.71778 0.82031,1.89698 0,1.15356 -0.82031,1.89697 -0.79468,0.71777 -2.69165,0.71777 h -15.86792 q -1.89697,0 -2.71729,-0.71777 -0.79467,-0.74341 -0.79467,-1.92261 0,-1.15356 0.79467,-1.87134 0.82032,-0.7434 2.71729,-0.7434 h 5.3064 v -20.55909 h -5.3064 q -1.89697,0 -2.71729,-0.71777 -0.79467,-0.74341 -0.79467,-1.92261 0,-1.1792 0.79467,-1.89697 0.82032,-0.74341 2.71729,-0.74341 l 15.86792,0.0256 q 1.89697,0 2.69165,0.71777 0.82031,0.71777 0.82031,1.89697 0,1.1792 -0.82031,1.92261 -0.79468,0.71777 -2.69165,0.71777 z"
         id="path36" />
      <path
         style="font-weight:bold;font-size:52.5px;-inkscape-font-specification:'Courier New, Bold'"
         d="m 458.83649,607.54919 q -0.69214,0.82032 -1.12793,1.05103 -0.41016,0.23071 -1.02539,0.23071 -1.20484,0 -1.94825,-0.79468 -0.71777,-0.82031 -0.71777,-2.69165 v -3.53759 q 0,-1.89698 0.71777,-2.69165 0.74341,-0.82032 1.94825,-0.82032 0.92285,0 1.53808,0.48706 0.64087,0.48707 0.97412,1.64063 0.33326,1.12793 0.69214,1.53809 0.74341,0.79467 2.64038,1.61499 1.89698,0.82031 4.15284,0.82031 3.51196,0 5.76782,-1.64063 1.43554,-0.99975 1.43554,-2.46093 0,-0.97413 -0.69213,-1.82007 -0.69214,-0.87158 -2.25586,-1.43555 -1.02539,-0.38452 -4.58863,-1.05102 -4.30664,-0.79468 -6.51123,-1.92261 -2.20459,-1.12793 -3.48633,-3.17871 -1.28173,-2.05078 -1.28173,-4.43482 0,-3.76831 3.15307,-6.58813 3.15308,-2.84546 8.20313,-2.84546 2.02514,0 3.74267,0.46142 1.74317,0.4358 3.15308,1.35865 1.02539,-0.99976 2.05078,-0.99976 1.15357,0 1.87134,0.82031 0.74341,0.79468 0.74341,2.66602 v 3.94775 q 0,1.89698 -0.74341,2.71729 -0.71777,0.79468 -1.87134,0.79468 -0.97412,0 -1.69189,-0.5896 -0.56397,-0.43579 -0.84595,-1.74317 -0.28198,-1.30737 -0.71777,-1.87134 -0.74341,-0.97412 -2.23023,-1.64062 -1.48682,-0.6665 -3.43506,-0.6665 -2.84546,0 -4.51172,1.333 -1.64062,1.30738 -1.64062,2.74292 0,0.97412 0.6665,1.89698 0.69214,0.89721 1.99951,1.40991 0.87159,0.35888 4.89624,1.15356 4.0503,0.79468 6.20362,1.74317 2.17895,0.94848 3.6145,2.97363 1.43555,2.02515 1.43555,4.81934 0,3.89648 -2.74292,6.22924 -3.64014,3.07618 -9.27979,3.07618 -2.17895,0 -4.25537,-0.53833 -2.05078,-0.5127 -3.99902,-1.56373 z m 73.31543,-24.4812 v 20.55909 h 5.30639 q 1.89698,0 2.69165,0.7434 0.82032,0.71778 0.82032,1.89698 0,1.15356 -0.82032,1.89697 -0.79467,0.71777 -2.69165,0.71777 h -15.86792 q -1.89697,0 -2.71728,-0.71777 -0.79468,-0.74341 -0.79468,-1.92261 0,-1.15356 0.79468,-1.87134 0.82031,-0.7434 2.71728,-0.7434 h 5.3064 v -20.55909 h -5.3064 q -1.89697,0 -2.71728,-0.71777 -0.79468,-0.74341 -0.79468,-1.92261 0,-1.1792 0.79468,-1.89697 0.82031,-0.74341 2.71728,-0.74341 l 15.86792,0.0256 q 1.89698,0 2.69165,0.71777 0.82032,0.71777 0.82032,1.89697 0,1.1792 -0.82032,1.92261 -0.79467,0.71777 -2.69165,0.71777 z m 63.83056,9.97193 8.76709,10.58716 q 1.56372,0.0256 2.33277,0.76904 0.79467,0.71777 0.79467,1.87134 0,1.15356 -0.82031,1.89697 -0.79468,0.71777 -2.69165,0.71777 h -5.92163 q -1.87134,0 -2.69165,-0.71777 -0.79468,-0.74341 -0.79468,-1.92261 0,-1.10229 0.74341,-1.82007 0.74341,-0.74341 2.23023,-0.79467 l -5.28077,-6.51124 -5.33203,6.51124 q 1.46118,0.0513 2.20459,0.79467 0.74341,0.74341 0.74341,1.84571 0,1.15356 -0.82031,1.89697 -0.79468,0.71777 -2.69165,0.71777 h -5.896 q -1.89697,0 -2.71728,-0.71777 -0.79468,-0.74341 -0.79468,-1.92261 0,-1.12793 0.79468,-1.87134 0.79467,-0.7434 2.33276,-0.7434 l 8.71582,-10.63843 -8.30566,-9.92066 q -1.53809,-0.0513 -2.30713,-0.76904 -0.74341,-0.74341 -0.74341,-1.87134 0,-1.1792 0.79468,-1.89697 0.82031,-0.74341 2.71728,-0.74341 l 4.84497,0.0256 q 1.89698,0 2.69165,0.71777 0.82032,0.71777 0.82032,1.89697 0,0.87158 -0.5127,1.58936 -0.33325,0.43579 -1.48682,1.05102 l 4.89624,5.87036 4.79371,-5.87036 q -1.15357,-0.61523 -1.48682,-1.05102 -0.5127,-0.71778 -0.5127,-1.58936 0,-1.15356 0.79468,-1.89697 0.82031,-0.74341 2.71729,-0.74341 l 4.81933,0.0256 q 1.89697,0 2.69165,0.71777 0.82032,0.71777 0.82032,1.89697 0,1.12793 -0.79468,1.87134 -0.76905,0.74341 -2.25586,0.76904 z"
         id="path37" />
      <path
         style="font-weight:bold;font-size:52.5px;-inkscape-font-specification:'Courier New, Bold'"
         d="m 273.88165,661.56165 v 7.69043 h 5.3833 q 1.89698,0 2.69165,0.7434 0.82032,0.71778 0.82032,1.89698 0,1.15356 -0.82032,1.89697 -0.79467,0.71777 -2.69165,0.71777 h -11.45874 q -1.89697,0 -2.71728,-0.71777 -0.79468,-0.74341 -0.79468,-1.92261 0,-1.15356 0.82031,-1.87134 0.82032,-0.7434 2.69165,-0.7434 h 0.82032 v -20.55909 h -0.82032 q -1.89697,0 -2.71728,-0.71777 -0.79468,-0.74341 -0.79468,-1.92261 0,-1.1792 0.79468,-1.89697 0.82031,-0.74341 2.71728,-0.74341 l 24.73755,0.0256 v 8.02368 q 0,1.87134 -0.74341,2.69165 -0.71777,0.79468 -1.89697,0.79468 -1.15356,0 -1.89697,-0.79468 -0.71777,-0.79468 -0.71777,-2.69165 v -2.76856 h -13.40699 v 7.61353 h 4.61426 q 0,-2.05078 0.38452,-2.64038 0.79468,-1.25611 2.25586,-1.25611 1.15357,0 1.87134,0.82032 0.74341,0.79467 0.74341,2.69165 v 6.0498 q 0,1.89697 -0.74341,2.71729 -0.71777,0.79467 -1.89697,0.79467 -1.43555,0 -2.23023,-1.2561 -0.38452,-0.5896 -0.38452,-2.66601 z m 81.36475,-2.58912 q 0,6.9983 -4.46045,11.66382 -4.43481,4.6399 -10.27954,4.6399 -5.25513,0 -9.48486,-3.87085 -5.2295,-4.79371 -5.2295,-12.43287 0,-7.63916 5.2295,-12.45849 4.22973,-3.87085 9.48486,-3.87085 5.84473,0 10.27954,4.66553 4.46045,4.63989 4.46045,11.66381 z m -5.25513,0 q 0,-4.7937 -2.89673,-7.92114 -2.89673,-3.15307 -6.58813,-3.15307 -3.66577,0 -6.5625,3.15307 -2.89673,3.15308 -2.89673,7.92114 0,4.76807 2.89673,7.92115 2.89673,3.12744 6.5625,3.12744 3.6914,0 6.58813,-3.12744 2.89673,-3.12744 2.89673,-7.92115 z m 65.52246,-10.27954 v 14.8938 q 0,4.87061 -3.51196,8.28003 -3.48633,3.40943 -8.4082,3.40943 -2.43531,0 -4.58863,-0.84595 -2.12768,-0.87158 -3.84521,-2.53784 -1.6919,-1.66626 -2.64038,-3.4607 -0.94849,-1.82007 -0.94849,-4.84497 v -14.8938 q -1.66626,0 -2.46094,-0.74341 -0.79467,-0.7434 -0.79467,-1.89697 0,-1.1792 0.79467,-1.89697 0.79468,-0.71777 2.71729,-0.71777 l 6.89575,-0.0256 q 1.89697,0 2.69165,0.74341 0.82031,0.71777 0.82031,1.89697 0,1.1792 -0.82031,1.92261 -0.79468,0.71777 -2.69165,0.71777 h -1.89697 v 15.35523 q 0,2.3584 1.94824,4.17846 1.97388,1.79444 4.74243,1.79444 1.84571,0 3.4607,-0.87158 1.61499,-0.87159 2.64038,-2.53785 0.64087,-1.05102 0.64087,-2.56347 v -15.35523 h -1.89698 q -1.89697,0 -2.71728,-0.71777 -0.79468,-0.74341 -0.79468,-1.92261 0,-1.1792 0.79468,-1.89697 0.82031,-0.74341 2.71728,-0.74341 l 6.89576,0.0256 q 1.89697,0 2.69165,0.71777 0.82031,0.71777 0.82031,1.89697 0,1.15357 -0.79468,1.89697 -0.79468,0.74341 -2.46094,0.74341 z m 45.57862,13.94532 v 6.61377 h 1.89697 q 1.89697,0 2.69165,0.7434 0.82031,0.71778 0.82031,1.89698 0,1.15356 -0.82031,1.89697 -0.79468,0.71777 -2.69165,0.71777 h -7.97241 q -1.89698,0 -2.71729,-0.71777 -0.79468,-0.74341 -0.79468,-1.92261 0,-1.15356 0.82032,-1.87134 0.82031,-0.7434 2.69165,-0.7434 h 0.82031 v -20.55909 h -0.82031 q -1.89698,0 -2.71729,-0.71777 -0.79468,-0.74341 -0.79468,-1.92261 0,-1.1792 0.79468,-1.89697 0.82031,-0.74341 2.71729,-0.74341 l 11.89453,0.0256 q 5.56274,0 8.61328,2.76855 3.07617,2.74292 3.07617,6.69067 0,2.46094 -1.43555,4.48609 -1.43554,1.99951 -4.33227,3.56323 1.66626,1.46118 3.56323,3.74268 1.1792,1.46118 3.17871,4.56299 1.99951,0 2.64038,0.41015 1.15357,0.79468 1.15357,2.23023 0,1.15356 -0.79468,1.89697 -0.79468,0.71777 -2.69165,0.71777 h -2.99927 q -6.38305,-9.86938 -10.58716,-11.86889 z m 0,-5.25513 h 4.10156 q 2.28149,0 4.07593,-0.69214 2.40966,-0.92285 3.22998,-1.94824 0.84594,-1.02539 0.84594,-2.02515 0,-1.48682 -1.58935,-2.74292 -1.58936,-1.28174 -4.63989,-1.28174 h -6.02417 z m 64.83032,4.17847 v 7.69043 h 5.3833 q 1.89697,0 2.69165,0.7434 0.82031,0.71778 0.82031,1.89698 0,1.15356 -0.82031,1.89697 -0.79468,0.71777 -2.69165,0.71777 h -11.45874 q -1.89697,0 -2.71729,-0.71777 -0.79467,-0.74341 -0.79467,-1.92261 0,-1.15356 0.82031,-1.87134 0.82031,-0.7434 2.69165,-0.7434 h 0.82031 v -20.55909 h -0.82031 q -1.89697,0 -2.71729,-0.71777 -0.79467,-0.74341 -0.79467,-1.92261 0,-1.1792 0.79467,-1.89697 0.82032,-0.74341 2.71729,-0.74341 l 24.73755,0.0256 v 8.02368 q 0,1.87134 -0.74341,2.69165 -0.71777,0.79468 -1.89697,0.79468 -1.15357,0 -1.89698,-0.79468 -0.71777,-0.79468 -0.71777,-2.69165 v -2.76856 h -13.40698 v 7.61353 h 4.61426 q 0,-2.05078 0.38452,-2.64038 0.79468,-1.25611 2.25586,-1.25611 1.15356,0 1.87134,0.82032 0.7434,0.79467 0.7434,2.69165 v 6.0498 q 0,1.89697 -0.7434,2.71729 -0.71778,0.79467 -1.89698,0.79467 -1.43554,0 -2.23022,-1.2561 -0.38452,-0.5896 -0.38452,-2.66601 z"
         id="path39" />
    </g>
  </g>
</svg>
